<?xml version="1.0" encoding="UTF-8" standalone="no"?>
<!-- Created with Inkscape (http://www.inkscape.org/) -->
<svg
   xmlns:dc="http://purl.org/dc/elements/1.1/"
   xmlns:cc="http://creativecommons.org/ns#"
   xmlns:rdf="http://www.w3.org/1999/02/22-rdf-syntax-ns#"
   xmlns:svg="http://www.w3.org/2000/svg"
   xmlns="http://www.w3.org/2000/svg"
   xmlns:sodipodi="http://sodipodi.sourceforge.net/DTD/sodipodi-0.dtd"
   xmlns:inkscape="http://www.inkscape.org/namespaces/inkscape"
   width="640"
   height="640"
   id="svg2"
   sodipodi:version="0.32"
   inkscape:version="0.46"
   version="1.0"
   sodipodi:docname="icon.svg"
   inkscape:output_extension="org.inkscape.output.svg.inkscape"
   inkscape:export-filename="/home/prodoomman/GodvilleQT/src/icon_16.png"
   inkscape:export-xdpi="2.25"
   inkscape:export-ydpi="2.25">
  <defs
     id="defs4">
    <inkscape:perspective
       sodipodi:type="inkscape:persp3d"
       inkscape:vp_x="0 : 526.18109 : 1"
       inkscape:vp_y="0 : 1000 : 0"
       inkscape:vp_z="744.09448 : 526.18109 : 1"
       inkscape:persp3d-origin="372.04724 : 350.78739 : 1"
       id="perspective10" />
    <inkscape:perspective
       id="perspective2447"
       inkscape:persp3d-origin="372.04724 : 350.78739 : 1"
       inkscape:vp_z="744.09448 : 526.18109 : 1"
       inkscape:vp_y="0 : 1000 : 0"
       inkscape:vp_x="0 : 526.18109 : 1"
       sodipodi:type="inkscape:persp3d" />
  </defs>
  <sodipodi:namedview
     id="base"
     pagecolor="#ffffff"
     bordercolor="#666666"
     borderopacity="1.0"
     gridtolerance="10000"
     guidetolerance="10"
     objecttolerance="10"
     inkscape:pageopacity="0.0"
     inkscape:pageshadow="2"
     inkscape:zoom="0.35"
     inkscape:cx="577.32079"
     inkscape:cy="520"
     inkscape:document-units="px"
     inkscape:current-layer="layer1"
     showgrid="false"
     inkscape:window-width="732"
     inkscape:window-height="736"
     inkscape:window-x="272"
     inkscape:window-y="26" />
  <metadata
     id="metadata7">
    <rdf:RDF>
      <cc:Work
         rdf:about="">
        <dc:format>image/svg+xml</dc:format>
        <dc:type
           rdf:resource="http://purl.org/dc/dcmitype/StillImage" />
      </cc:Work>
    </rdf:RDF>
  </metadata>
  <g
     inkscape:label="Layer 1"
     inkscape:groupmode="layer"
     id="layer1">
    <path
       style="fill:#ff0000;fill-opacity:1;stroke:none;stroke-width:1;stroke-miterlimit:4;stroke-dasharray:none;stroke-dashoffset:0;stroke-opacity:1"
       id="path2477"
       d="M 299.6482,260.68589 C 306.56453,264.723 311.91676,270.85462 317.78276,276.22904 C 324.73505,282.60019 330.74071,289.88125 336.17167,297.56665 C 340.91237,304.39757 344.63619,311.88407 348.38696,319.28905 C 351.85881,326.17851 354.78455,333.34324 357.9043,340.40307 C 360.75961,346.2916 363.33172,352.33084 365.47471,358.51546 C 367.20673,364.46916 370.28782,369.82184 372.86471,375.41324 C 375.3262,381.21436 377.22164,387.16093 378.60851,393.30039 C 380.31729,399.74817 382.26299,406.13444 384.11869,412.54466 C 385.98882,418.63008 387.42527,424.84269 388.75347,431.06647 C 389.95569,437.9616 390.89123,444.89289 392.53752,451.70285 C 394.64875,458.1608 395.38445,464.90437 396.78826,471.52065 C 398.33176,477.79921 398.86286,484.2323 399.47994,490.64555 C 400.64387,497.19758 401.39663,503.79933 402.14781,510.40678 C 403.51576,517.55198 404.22984,524.78903 404.77041,532.03707 C 404.96469,538.22136 406.39687,544.26209 407.22359,550.37581 C 408.27401,554.06567 406.76649,559.64904 409.3599,562.82978 C 340.42358,600.07833 362.15286,603.27993 358.2318,575.70622 C 357.11618,569.56866 356.46923,563.37256 356.10655,557.14971 C 355.81482,551.19596 355.61107,545.25543 356.44024,539.34157 C 357.34023,533.43099 358.17124,527.55356 359.78828,521.78958 C 361.88286,516.4407 363.1965,510.91413 363.89429,505.22659 C 364.88981,499.06361 366.2329,493.00222 366.81631,486.77684 C 366.92935,479.89652 368.10574,473.12379 368.9889,466.3177 C 370.4361,459.04246 371.86426,451.79258 372.5353,444.3996 C 373.59313,436.83125 374.65816,429.27073 376.15105,421.77532 C 377.65715,414.47813 378.30056,407.05707 379.43302,399.70087 C 380.14773,392.20377 382.62233,385.09864 384.64161,377.89797 C 386.46299,371.76581 386.6675,365.36571 387.47914,359.07012 C 388.86955,351.90625 389.32226,344.62046 390.56999,337.43779 C 391.78591,330.68271 392.7218,323.89677 393.99487,317.15061 C 395.35788,310.90106 397.1593,304.75934 399.34325,298.74985 C 402.00682,292.40283 404.74416,286.08943 407.41852,279.74542 C 410.50104,272.70985 413.53517,265.65633 416.93128,258.7654 C 421.28008,250.59836 426.93762,243.22727 432.23282,235.66565 C 437.36005,228.70424 441.53233,221.1131 445.53346,213.46824 C 448.58089,207.58552 451.4851,201.63043 454.44389,195.70308 C 457.34884,189.01463 461.8117,183.29732 466.52827,177.81343 C 472.16824,172.20245 477.06182,166.03764 481.70604,159.60051 L 531.99095,137.85027 C 527.26907,144.25817 523.21377,151.14555 517.18701,156.48224 C 512.55723,161.51039 507.87902,166.62556 504.81133,172.80084 C 502.01879,178.93049 498.79848,184.86726 495.6805,190.83431 C 491.67749,198.83881 487.00971,206.51608 482.11827,214.00466 C 476.87596,221.33347 471.73274,228.74691 466.79224,236.27872 C 463.20996,242.92489 460.64064,249.97467 457.51684,256.82548 C 454.59169,262.95386 452.42461,269.38181 449.61301,275.54881 C 447.0249,281.1633 445.56089,287.12359 443.69642,293.0003 C 442.37911,299.77687 441.03016,306.48684 440.19727,313.34055 C 438.67308,320.40689 438.01901,327.5203 437.05464,334.67978 C 436.04652,341.17406 436.20128,347.84783 434.34752,354.22028 C 432.45295,361.32558 429.76614,368.25469 428.72588,375.55705 C 427.50811,382.96335 427.14163,390.44253 425.63821,397.8009 C 424.11519,405.10784 422.96222,412.4663 421.79937,419.8401 C 421.1665,427.26763 420.297,434.64563 418.49456,441.89628 C 417.61396,448.62335 416.25242,455.29402 416.23141,462.10276 C 415.79815,468.30928 415.348,474.5183 413.60035,480.52634 C 413.11316,486.56662 412.25891,492.5858 409.96205,498.24326 C 407.79513,503.62243 407.09159,509.24959 406.28674,514.96011 C 405.2193,520.53935 405.03221,526.05159 405.40121,531.74058 C 405.61478,537.78174 405.99958,543.82644 407.13522,549.77608 C 412.39254,578.05773 407.49471,565.27379 358.35382,588.25552 C 359.99043,588.1162 358.02344,578.13457 358.1103,576.15142 C 357.43961,569.86619 355.95275,563.67581 355.77563,557.35784 C 355.48828,550.26047 354.87499,543.18569 353.37697,536.22671 C 352.07822,529.69428 352.15076,522.95548 350.62187,516.44099 C 349.42416,510.21254 349.67279,503.78667 348.17088,497.5849 C 346.78449,491.03151 345.76685,484.41364 344.0458,477.93495 C 342.26992,471.11115 341.16409,464.11537 340.10862,457.15143 C 338.8186,451.07445 337.04777,445.111 335.57175,439.0793 C 333.60344,432.64659 332.15883,426.04547 330.04084,419.65148 C 328.30797,413.93757 327.04958,408.09779 324.63713,402.59673 C 322.12226,396.77012 318.70821,391.36836 316.92452,385.22446 C 315.03915,379.1062 312.5072,373.18032 309.84672,367.36472 C 306.98657,360.28776 304.06324,353.21541 300.69749,346.36335 C 297.31429,339.03412 293.42522,331.99371 288.75374,325.39709 C 283.9265,317.91868 278.48421,310.79121 272.06891,304.59693 C 265.95667,299.27267 259.6464,294.29743 252.11666,291.11982 L 299.6482,260.68589 z" />
    <text
       xml:space="preserve"
       style="font-size:46.17804718px;font-style:normal;font-variant:normal;font-weight:normal;font-stretch:normal;fill:#0000ff;fill-opacity:1;stroke:none;stroke-width:1px;stroke-linecap:butt;stroke-linejoin:miter;stroke-opacity:1;font-family:Georgia;-inkscape-font-specification:Georgia"
       x="100.55733"
       y="360.15845"
       id="text2453"><tspan
         sodipodi:role="line"
         id="tspan2455"
         x="100.55733"
         y="360.15845"
         style="font-size:369.42437744px;fill:#0000ff">G</tspan></text>
    <text
       xml:space="preserve"
       style="font-size:15.6374979px;font-style:normal;font-variant:normal;font-weight:normal;font-stretch:normal;fill:#000000;fill-opacity:1;stroke:none;stroke-width:1px;stroke-linecap:butt;stroke-linejoin:miter;stroke-opacity:1;font-family:Georgia;-inkscape-font-specification:Georgia"
       x="28.265392"
       y="296.52295"
       id="text2467"
       transform="scale(2.3379814,0.4277194)"><tspan
         sodipodi:role="line"
         id="tspan2469"
         x="28.265392"
         y="296.52295"
         style="font-size:286.68746948px;fill:#ffff00">o</tspan></text>
  </g>
</svg>
